<?xml version="1.0" encoding="UTF-8"?>
<svg id="Capa_1" data-name="Capa 1" xmlns="http://www.w3.org/2000/svg" viewBox="0 0 1366 768">
  <defs>
    <style>
      .cls-1 {
        fill: #282829;
      }

      .cls-2 {
        fill: #224390;
      }
    </style>
  </defs>
  <path class="cls-2" d="m908.47,261.42c-42.1,15.31-80.11,37.62-114.25,66.57-6.23,5.28-11.69,6.95-11.43-4.29.82-35.46-2.29-70.94,2.39-106.4,2.79-21.17,13.19-36.56,30.22-48.14,29.72-20.19,59.59-40.15,89.4-60.21,1.27,0,2.55,0,3.82,0,4.43,40.83.92,81.79,1.72,122.68.19,9.88,2.52,20.11-1.87,29.79Z"/>
  <path class="cls-1" d="m560.73,479.17c.78,15.17-.59,30.43,3.59,45.41,4.4,15.77,13.69,25.52,30.35,27.13,12,1.16,24.03,2.36,36.07,2.79,27.96,1,50.73,35.96,40.37,62.42-16.47,42.1-16.47,41.96-62.15,41.64-33.14-.23-66.06-2.55-98.11-11.39-47.46-13.08-74.21-44.09-75.07-93.36-1.58-90.75-.57-181.55-.72-272.33-.02-11.34,2.25-18.06,15.09-9.89,25.17,16.01,51.56,30.21,74.94,48.9,17.79,14.22,32.39,30.68,32.62,55.4,3.44,26.91.45,53.94,1.55,80.9.3,7.46-1.57,15.09,1.46,22.38Z"/>
  <path class="cls-2" d="m714.08,659.05c-14.03-.29-28.07-.57-42.1-.86,1.02-3.58,1.31-7.61,3.18-10.67,17.16-28.12,16.79-56.17.34-84.36-4.23-10.49,3.2-9.5,9.52-9.72,19.87-.69,39.8,1.5,59.62-1.26,31.82-2.56,40.05-9.27,37.31-41.54-2.69-31.65,7.26-55.74,28.07-78.73,25.6-28.27,50.97-56.59,80.19-81.2,4.66-3.93,8.61-9.41,15.5-9.85.93,1.04,2.39,1.92,2.39,2.79-.21,74.18,3.95,148.46-2.83,222.5-3.69,40.28-26.65,65.82-65.39,77.68-41.07,12.56-83.34,14.46-125.8,15.23Z"/>
  <path class="cls-1" d="m617.13,358.6c13.22.55,24.07,5.3,33.54,13.41,14.55,12.47,27.08,26.75,38.14,42.38,17.93,25.35,17.5,24.92,37.27.12,37.94-47.61,81.64-88.75,136.38-116.88,17.57-9.03,35.76-16.61,55.08-20.98,8.23-1.86,18.97-8,24.03,2.38,4.97,10.18-6.61,15.29-12.72,20.82-16.48,14.89-33.79,28.86-50.64,43.35-52.06,44.76-93.54,98.3-129.7,156.25-2.69,4.31-5.39,8.61-8.26,12.8-19.61,28.62-47.59,30.29-68.54,2.31-15.56-20.77-28.38-43.58-42.35-65.53-10.23-16.09-21.33-31.5-33.29-46.39-6.27-7.81-18.46-15.1-11.09-27.61,6.96-11.81,19.7-15.21,32.18-16.43Z"/>
  <path class="cls-1" d="m496.65,119.94c40.17.05,72.09,32.39,71.95,72.91-.13,39.53-33.68,72.74-73.04,72.32-41.23-.45-72.28-31.55-72.31-72.41-.03-42.5,30.58-72.86,73.41-72.81Z"/>
</svg>