<?xml version="1.0" encoding="UTF-8"?>
<svg id="Capa_1" data-name="Capa 1" xmlns="http://www.w3.org/2000/svg" viewBox="0 0 1366 768">
  <defs>
    <style>
      .cls-1 {
        fill: #fff;
      }
    </style>
  </defs>
  <path class="cls-1" d="m411.99,309.89c-25.43,9.25-48.39,22.73-69.02,40.21-3.77,3.19-7.06,4.2-6.9-2.59.5-21.42-1.38-42.86,1.44-64.27,1.69-12.79,7.97-22.09,18.26-29.08,17.95-12.2,36-24.26,54.01-36.37.77,0,1.54,0,2.31,0,2.68,24.67.55,49.41,1.04,74.11.12,5.97,1.52,12.15-1.13,18Z"/>
  <path class="cls-1" d="m1217.53,462.39v23.75c-4.85-2.08-7.55-3.44-10.36-4.38-17.45-5.95-35.82,1.06-43.13,16.41-7.08,14.86-5.38,28.69,4.94,40.29,9.35,10.52,23.84,13.71,38.77,8.54,2.86-.99,6.81-3.69,8.35-2.7,9.99,6.48,20.82,1.38,31.04,3.09v-85.27c-9.88-1.75-19.75-2.15-29.61.28Zm-13.29,67.04c-9.46-.02-14.7-5.33-14.75-14.95-.07-9.9,5.98-15.83,15.67-15.42,9.09.42,14.42,6.28,14.26,15.76-.14,9.42-5.56,14.63-15.19,14.61Z"/>
  <path class="cls-1" d="m201.92,441.44c.47,9.16-.35,18.38,2.17,27.43,2.66,9.53,8.27,15.42,18.34,16.39,7.25.7,14.51,1.43,21.79,1.69,16.89.61,30.64,21.72,24.39,37.71-9.95,25.43-9.95,25.35-37.55,25.15-20.02-.14-39.91-1.54-59.27-6.88-28.67-7.9-44.83-26.63-45.35-56.4-.96-54.82-.35-109.67-.44-164.51-.01-6.85,1.36-10.91,9.12-5.98,15.21,9.67,31.15,18.25,45.27,29.54,10.75,8.59,19.57,18.54,19.7,33.47,2.08,16.26.27,32.59.93,48.87.18,4.51-.95,9.12.88,13.52Z"/>
  <path class="cls-1" d="m294.55,550.1c-8.48-.17-16.96-.35-25.43-.52.62-2.16.79-4.6,1.92-6.45,10.37-16.99,10.14-33.93.21-50.96-2.56-6.34,1.93-5.74,5.75-5.87,12-.42,24.04.91,36.02-.76,19.22-1.55,24.19-5.6,22.54-25.1-1.62-19.12,4.39-33.67,16.96-47.56,15.46-17.08,30.79-34.19,48.44-49.06,2.82-2.37,5.2-5.68,9.36-5.95.56.63,1.44,1.16,1.44,1.68-.12,44.81,2.39,89.69-1.71,134.41-2.23,24.33-16.1,39.76-39.5,46.92-24.81,7.59-50.35,8.74-75.99,9.2Z"/>
  <path class="cls-1" d="m235.99,368.6c7.99.33,14.54,3.2,20.26,8.1,8.79,7.53,16.36,16.16,23.04,25.6,10.83,15.32,10.57,15.05,22.51.07,22.92-28.76,49.32-53.61,82.39-70.61,10.61-5.46,21.6-10.03,33.27-12.68,4.97-1.13,11.46-4.83,14.51,1.44,3,6.15-3.99,9.24-7.69,12.58-9.96,9-20.41,17.43-30.59,26.19-31.45,27.04-56.51,59.38-78.35,94.39-1.62,2.6-3.26,5.2-4.99,7.73-11.85,17.29-28.75,18.3-41.41,1.4-9.4-12.54-17.14-26.33-25.58-39.59-6.18-9.72-12.89-19.03-20.11-28.02-3.79-4.72-11.15-9.12-6.7-16.68,4.21-7.14,11.9-9.19,19.44-9.92Z"/>
  <path class="cls-1" d="m163.21,224.43c24.27.03,43.55,19.57,43.47,44.04-.08,23.88-20.34,43.94-44.13,43.69-24.9-.27-43.67-19.06-43.68-43.74-.02-25.67,18.47-44.02,44.34-43.98Z"/>
  <path class="cls-1" d="m494.87,547.64c-21.15-3.95-29.69-13.9-29.71-34.91-.01-16.8.18-33.59.28-50.39,10.67-2.66,21.43-1.38,32.18-.74,2.2,14.58.34,29.25.99,43.86.18,4.1-.83,8.28.85,12.28,3.4,11.26,12.58,9.59,20.66,8.41,7.77-1.13,9.73-7.53,9.78-14.59.1-16.34.24-32.68.37-49.01,9.26-3.54,18.87-.76,28.28-1.52,4.39-.35,4.71,2.81,4.63,6.13-.42,17.63.84,35.28-.69,52.89-3.31,17.95-10.76,24.85-30.05,27.79-12.53,1.01-25.05,1.43-37.56-.19Z"/>
  <path class="cls-1" d="m833.16,488.37c-10.69-9.72-27.62-11.03-42.81-3.28-4.94.62-3.23-3.21-3.35-5.38q-1.22-19.13-20.84-18.76c-.76,0-1.55.09-2.31-.02-5.75-.78-7.08,2.1-7.02,7.34.25,17.24-.18,34.48.21,51.72.23,9.05-1.92,18.23,1.34,27.14,6.12.09,12.37.99,18.32.07,9-1.43,16.96-1.29,26.17,1.71,11.56,3.74,32.01-2.84,38.12-20.1,5.08-14.38,2.08-31.39-7.85-40.43Zm-33.46,41.03c-9.65.07-16.32-6.42-16.18-15.58.12-7.94,7.38-14.65,15.99-14.77,9.85-.14,14.05,4.78,14.01,16.41.88,10.09-4.68,13.85-13.82,13.94Z"/>
  <path class="cls-1" d="m1059.12,465.92c.12-3.28-1.29-5.15-4.68-4.92-7.92.53-15.97-1.48-23.75,1.29-.37,7.5-.76,14.98-1.18,23.45-3.55-1.43-5.98-2.45-8.42-3.37-15.12-5.58-32.24-1.52-40.92,9.72-9.6,12.42-10.11,29.61-1.29,42.92,8.08,12.21,23.72,17.12,39.56,12.42,3.6-1.06,8.54-4.34,10.52-3.05,9.44,6.16,19.34,1.55,28.87,2.68,2.95-27,.51-54.09,1.29-81.14Zm-26.96,49.46c-.69,9.69-6.21,14.29-15.85,14.05-9.39-.23-14.45-5.75-14.19-15.46.23-9.44,5.86-15.02,15.07-14.91,9.37.09,15.67,6.78,14.98,16.32Z"/>
  <path class="cls-1" d="m746.74,505.01c.05-12.02-6-19.62-17.38-22.55-13.92-3.58-28.06-3.69-42.05-.16-6.55,1.66-12,5.1-15.16,11.38-2.03,4.06-2.56,7.82,3.72,7.48,7.82-.42,15.6,1.62,23.42-2.98,8.91-5.24,15.35-1.66,17.22,7.59-9.02,3.48-18.67-.76-27.74,2.28-19.09,3.35-28.02,15.88-20.56,29.72,5.58,10.41,16.39,14.59,26.42,11.38,14.54-4.66,28.57-1.87,42.81-1.66,6.85.09,9.74-2.03,9.46-9.14-.42-11.1-.18-22.22-.16-33.35Zm-30.3,21.85c-.65,6.97-7.15,6.97-12.39,7.29-3.72.23-8.65.46-8.68-4.87,0-7.98,6.83-6.48,11.52-7.5,3.78,1.2,10.18-1.96,9.55,5.08Z"/>
  <path class="cls-1" d="m1150.32,503.95c-.07-10.5-5.35-17.75-15.07-20.77-14.93-4.62-30.19-4.59-45.33-.53-6.14,1.66-11.15,5.12-14.1,10.96-2.01,4.02-2.65,7.87,3.65,7.55,7.82-.42,15.6,1.64,23.42-2.98,8.86-5.22,15.35-1.66,17.29,7.57-9.02,3.55-18.67-.76-27.72,2.31-19.11,3.32-28.06,15.83-20.65,29.68,5.58,10.48,16.39,14.61,26.4,11.42,14.54-4.64,28.57-1.94,42.81-1.66,6.76.12,9.81-1.87,9.51-9.07-.44-11.49-.14-22.99-.21-34.48Zm-30.23,22.62c-.78,7.71-7.68,7.25-13.27,7.59-3.95.23-8.61-.44-7.85-5.72,1.04-7.36,7.57-5.98,12.76-6.48,3.25.78,8.98-1.52,8.35,4.62Z"/>
  <path class="cls-1" d="m598.7,547.6c-17.21-3.04-22.19-7.15-24.97-20.61,9.9-2.54,19.82-2.19,29.76-.24,3.56,7.31,9.95,7.83,16.62,6.25,2.56-.6,6.87-1.12,6.62-5.05-.26-4.12-4.26-3.67-7.2-3.83-9.51-.53-18.83-2.24-27.96-4.83-8.71-2.48-15.55-7.08-15.57-17.3-.02-10.35,6.25-16.38,15.42-19,16.18-4.61,32.6-4.5,48.7.52,3.83,1.19,7.27,4.18,10.38,6.92,2.25,1.98,4.1,5.03,3.18,8.21-1.18,4.09-5.11,2.61-7.83,2.55-8.24-.16-16.91,2.07-24.31-3.9-1.04-.84-2.99-1-4.44-.82-4.17.53-10.87-2.45-11.51,3.63-.46,4.38,6.42,5.01,10.07,5.33,7.2.63,14.32,1.52,21.48,2.54,13.98,2,20.36,6.57,21.29,16.58.96,10.44-5.42,18.4-17.8,22.01-2.19.64-4.52.75-6.79,1.11-11.72,1.34-23.43,1.46-35.15-.09Z"/>
  <path class="cls-1" d="m921.69,547.06c-9.05.07-18.09.14-27.14.21-3.09-4.94-1.46-10.42-1.38-15.57.38-24.75-1.4-49.54.86-74.27l.41.25c7.8-2.77,15.87-.76,23.8-1.3,3.34-.23,4.88,1.5,4.79,4.83-.8,28.61,1.68,57.28-1.34,85.85Z"/>
  <path class="cls-1" d="m643.35,379.26c-4.52-11.35-13.99-17.1-27.37-16.87-5.26.09-12.07,3.46-13.29-5.93-.42-3.09-1.68-6.42-5.72-5.68-3.67.67-4.32,4.06-4.36,7.22-.09,8.05-.02,16.13-.02,24.19h-.07c0,8.05-.05,16.11.02,24.16.02,3.09.28,6.3,3.14,8.29,7.62,5.28,31.73,3.37,39.44-3.05,9.53-7.98,12.83-20.86,8.24-32.33Zm-25.06,27.83c-10.09.02-15.25-5.72-15.28-17.03-.05-11.38,5.01-17.38,14.86-17.65,9.58-.25,17.59,7.5,17.7,17.15.12,9.62-7.64,17.49-17.29,17.54Z"/>
  <path class="cls-1" d="m882.43,483.01c.16,18.42.1,36.85.57,55.26.18,7.05-2.43,9.72-9.39,9.18-6.11-.47-12.28-.28-18.43-.38-3-20.12-.57-40.35-1.34-60.52-.13-3.33,1.46-5.03,4.78-4.81,7.93.53,15.99-1.44,23.8,1.27Z"/>
  <path class="cls-1" d="m963.62,538.24c.18,7.02-2.33,9.76-9.32,9.21-6.12-.48-12.28-.28-18.42-.39-2.82-19.34-.72-38.79-1.27-58.2.85-3.21,2.17-5.56,4.04-7.13,4.27-3.58,11.54-3,23.15.9.42.12.83.28,1.27.42.14,18.39.07,36.81.55,55.2Z"/>
  <path class="cls-1" d="m938.65,481.72c-1.87,1.57-3.18,3.92-4.04,7.13,0-.76-.02-1.5-.05-2.26-.12-3.05,1.2-4.82,4.08-4.87Z"/>
  <path class="cls-1" d="m1172.94,382.79c0-8.82.09-17.61-.05-26.42-.05-2.93-1.52-5.33-4.78-5.38-2.75-.05-4.15,2.12-4.29,4.52-.51,8.59-5.68,7.82-12.07,7.08-17.52-1.96-30.62,8.98-31.43,25.48-.76,15.92,11.56,29.7,26.77,29.93,24.25.39,26.17-1.5,26.17-26.03v-9.19h-.32Zm-25.2,24.25c-9.65.18-17.82-7.66-17.84-17.17,0-9.67,7.98-17.59,17.61-17.45,9.88.16,15.62,6.53,15.67,17.33.05,11.19-5.22,17.1-15.44,17.29Z"/>
  <path class="cls-1" d="m825.32,389.94c0-5.75.05-11.49-.02-17.24-.05-5.38-2.12-8.58-8.17-8.7-5.33-.09-10.62-1.38-15.95-1.55-15.81-.44-28.04,11.35-28.27,26.93-.21,15.46,12.12,28.41,27.16,28.57,23.4.25,25.39-1.68,25.41-24.55v-3.44c-.07,0-.12,0-.16-.02Zm-25.2,17.15c-10.18-.07-16.99-7.27-16.78-17.75.21-9.95,7.89-17.31,17.75-16.92,9.95.37,14.77,6.25,14.63,17.82-.14,11.17-5.45,16.92-15.6,16.85Z"/>
  <path class="cls-1" d="m568.88,389.92c0-5.75,0-11.49.02-17.24,0-5.38-1.85-8.61-8.03-8.61-4.89-.02-9.79-1.25-14.7-1.59-16.43-1.11-29.36,10.32-30,26.33-.6,14.95,11.86,28.57,26.63,29.15,22.94.92,26.17-2.12,26.19-24.6v-3.44h-.12Zm-25.25,17.19c-9.95.02-17.4-7.5-17.31-17.4.12-9.85,7.75-17.42,17.49-17.33,10.43.09,15.95,6.42,15.76,18.07-.16,10.66-5.88,16.66-15.95,16.66Z"/>
  <path class="cls-1" d="m1225.51,406.42c-.76.14-1.5.39-2.26.44-2.68.23-5.91.9-7.45-1.64-1.68-2.79.9-4.98,2.72-6.9,5.56-5.82,11.31-11.49,16.8-17.35,7.06-7.52,6.14-11.59-3.35-16.22-3.9-1.92-8.08-2.24-12.3-2.38-11.56.09-19.87,5.47-24.51,15.9-4.8,10.8-3.25,21.16,4.43,30.09,7.04,8.19,16.27,11.56,26.91,8.52,5.31-1.5,13.29-3.42,11.4-10.27-2.15-7.66-8.1-.85-12.39-.18Zm-19.22-11.98c-4.36-.92-2.84-4.64-3.14-7.15.78-8.38,8.95-15.65,16.41-14.82,2.26.25,4.73.37,4.8,3.6.07,2.88-15.49,18.92-18.07,18.37Z"/>
  <path class="cls-1" d="m908.07,362.39c-15.76-.18-27.56,11.52-27.62,27.44-.07,15.23,12.67,28.29,27.44,28.11,15.02-.16,27.35-13.09,27.16-28.48-.16-15.16-11.84-26.89-26.98-27.07Zm-1.08,44.72c-9.18-.32-16.71-7.98-16.82-17.08-.12-9.74,7.66-17.63,17.4-17.63,10.04-.02,17.08,7.34,16.96,17.72-.12,10.55-7.13,17.35-17.54,16.99Z"/>
  <path class="cls-1" d="m689.11,362.39c-15.72-.12-27.76,11.86-27.72,27.56.02,15.14,12.99,28.2,27.79,28.02,14.75-.18,27.49-13.62,27.16-28.66-.32-15.16-12.09-26.79-27.23-26.91Zm-.16,44.72c-9.83.05-17.45-7.48-17.47-17.24-.05-9.79,7.52-17.45,17.26-17.49,9.74-.05,17.33,7.45,17.45,17.29.09,9.85-7.36,17.4-17.24,17.45Z"/>
  <path class="cls-1" d="m1052.31,362.41c-16.06-.16-27.35,11.38-27.23,27.76.14,15.49,11.63,27.58,26.45,27.79,14.91.21,27.32-12.65,27.28-28.25-.05-15.83-11.03-27.16-26.49-27.3Zm-1.43,44.66c-9.58-.48-16.13-7.66-15.95-17.45.18-10.11,7.75-17.49,17.59-17.22,9.62.25,17.17,8.47,16.73,18.21-.44,9.74-8.49,16.96-18.37,16.45Z"/>
  <path class="cls-1" d="m487,416.01q-19.53,0-19.56-19.55c0-12.65,0-25.29.13-37.94.03-3.02-.07-6.84,3.96-7.22,4.99-.46,5.11,3.78,5.17,7.19.19,11.49.46,23,.12,34.49-.27,9.06,3.02,13.39,12.6,13.49,5.46.06,15.28-3.08,15.18,4.83-.09,7.95-9.87,3.43-15.31,4.68-.73.17-1.53.02-2.3.02Z"/>
  <path class="cls-1" d="m748.48,363.8c3.47-.17,7.97-2.71,9.7,2.66,1.5,4.65-2.74,5.7-5.6,7.33-5.47,3.13-6.3,8.24-6.38,13.84-.1,7.28-.21,14.57-.61,21.84-.15,2.78-1.54,5.41-4.8,5.53-2.69.09-4.3-2.16-4.52-4.45-1.35-13.76-1.56-27.61-.02-41.33.77-6.91,7.32-5.28,12.22-5.43Z"/>
  <path class="cls-1" d="m869.95,476.1c-11.19-.03-17.52-5.84-17.22-14.34.34-9.64,6.8-12.92,15.11-13.39,9.57-.54,15.41,5.19,15.16,14.28-.27,9.64-6.17,13.13-13.05,13.45Z"/>
  <path class="cls-1" d="m850.83,349.48c10.62,3.47,15.53,16.7,10.73,26.44-4.4,8.92-1.46,18.88-2.05,28.36-.37,6.06-.31,11.98-8.87,11.56-2.22-22.13-2.62-44.25.19-66.36Z"/>
  <path class="cls-1" d="m948.99,448.19c8.59.37,14.37,4.18,14.59,13.66.22,9.42-5.03,13.86-14.1,14.21-9.47.37-16.13-5.4-15.66-14.03.5-9.14,5.95-13.49,15.17-13.85Z"/>
  <path class="cls-1" d="m963.18,415.82c-5.7.32-8.56-2.48-8.59-8.08-.07-11.79-.1-23.57-.04-35.36.02-3.56.72-7.58,4.79-8.04,5.15-.58,10.77-2.65,15.57.14,3.19,1.85,2.34,5.15-.65,7.48-2.97,2.31-5.86,4.74-8.78,7.11-2.86,12.12,1.32,24.67-2.3,36.74Z"/>
  <path class="cls-1" d="m1004.59,389.42c0,6.89.12,13.79-.06,20.67-.06,2.43-1.43,4.52-4.21,4.51-2.78-.01-4.15-2.11-4.18-4.54-.14-13.4-.15-26.8-.09-40.21.01-2.6,1.53-4.35,4.3-4.34,2.77,0,4.23,1.79,4.28,4.38.13,6.51.04,13.02.04,19.53-.03,0-.05,0-.08,0Z"/>
  <path class="cls-1" d="m1004.41,352.06c-.2,3.22-1.49,4.91-4.25,4.78-2.72-.13-3.95-1.85-3.85-4.52.09-2.28,1.55-3.42,3.59-3.6,2.69-.24,4.09,1.34,4.51,3.34Z"/>
</svg>