<?xml version="1.0" encoding="utf-8"?>
<!-- Generator: Adobe Illustrator 23.0.1, SVG Export Plug-In . SVG Version: 6.00 Build 0)  -->
<svg version="1.1" id="Capa_1" xmlns="http://www.w3.org/2000/svg" xmlns:xlink="http://www.w3.org/1999/xlink" x="0px" y="0px"
	 viewBox="0 0 1462.82 99.64" style="enable-background:new 0 0 1462.82 99.64;" xml:space="preserve">
<style type="text/css">
	.st0{fill:#FFFFFF;}
	.st1{opacity:0.3;fill:#FFFFFF;}
	.st2{opacity:0.5;fill:#FFFFFF;}
	.st3{opacity:0.6;fill:#FFFFFF;}
</style>
<g>
	<path class="st0" d="M1512.88,86.93v-14.8c0,0-173.68-68.04-467.93-37.28c-294.25,30.77-385-4.46-511.15-20.32
		c-126.15-15.87-197.19-0.8-311.55,11.3C107.89,37.92,0.76,22.62,0.76,22.62l-1.01,64.32H1512.88z"/>
	<path class="st1" d="M1221.16,87.57c-272.5-7.95-441.64-45.54-692.22-30.36C278.36,72.39,143.67,99.86-41.13,83.95
		c-51.63-4.44-86.88-0.59-110.87,7.27c14.14-22.14,51.25-43.9,145.39-35.42c176.48,15.9,305.1-11.57,544.4-26.74
		c239.3-15.18,400.82,22.41,661.06,30.36c260.24,7.95,376.89-28.19,376.89-28.19l12.52,34.53
		C1538.45,75.75,1419.73,93.36,1221.16,87.57z"/>
	<path class="st2" d="M918.2,99.56c339.34-2.96,436.47-56.45,613.5-33.24c34.52,4.52,61.73,16.06,83.12,32.18
		c-22.73-34.72-58.17-61.2-112.63-68.61c-169.42-23.07-262.47,30.5-587.29,33.72C631.13,66.41,398.91,8.5,241.51,9.91
		C84.1,11.33,4.33,42.18,4.33,42.18l-9.94,26.11c40.07-9.19,114.8-22.14,220.23-22.96C379.06,44.04,621.75,102.14,918.2,99.56z"/>
	<path class="st3" d="M-19,38.61c0,0,9.5,25.4,147.69,26.71c4.81-0.04,9.75-0.11,14.83-0.2c144.05-2.63,298.67-31.53,480.21-31.18
		c45.44-0.08,92.61,1.77,141.82,6.54c10.39,1.01,20.46,1.97,30.24,2.89c124.76,11.35,202.75,16.24,265.99,16.47
		c42.68-0.16,78.88-2.65,119.9-6.8c32.3-3.27,77.95-5.48,127.52-5.18c106.49-0.6,236.43,9.28,296.61,43.36
		c-2.62-9.26-5.45-15.98-8.51-19.19c-60.04-62.93-309.65-63.65-415.61-52.92c-105.97,10.73-179.81,10.35-416.14-12.56
		C529.22-16.36,339.59,27.91,165.87,31.19C-7.86,34.47-19,4.68-19,4.68V38.61z"/>
</g>
</svg>
